<svg width="166" height="49" viewBox="0 0 166 49" fill="none" xmlns="http://www.w3.org/2000/svg">
<g id="logo-bright">
<g id="Group">
<g id="logo-icon-bright">
<path id="ib3" fill-rule="evenodd" clip-rule="evenodd" d="M27.9518 32.722L0.00350952 19.2552V24.2366L27.9518 37.7358L56 24.1898V19.2083L27.9518 32.722Z" fill="#BDBAFA"/>
<path id="ib2" fill-rule="evenodd" clip-rule="evenodd" d="M27.9518 41.9873L0.00350952 28.5173V33.4978L27.9518 47L56 33.453V28.4715L27.9518 41.9873Z" fill="#BDBAFA"/>
<path id="ib1" fill-rule="evenodd" clip-rule="evenodd" d="M0.00350952 14.672V14.8001L27.9518 28.472L56 14.7542V14.7199L27.9518 1L0.00350952 14.672ZM10.0799 14.7365L19.0158 10.3647L23.4838 8.17883L27.9518 5.99293L36.8897 10.3647L45.8276 14.7365L36.8897 19.1078L27.9518 23.4791L10.0799 14.7365Z" fill="#BDBAFA"/>
</g>
<g id="Mask group">
<mask id="mask0_3_131" style="mask-type:alpha" maskUnits="userSpaceOnUse" x="72" y="0" width="94" height="49">
<g id="Group_2">
<path id="Vector" d="M72.0139 0.0299988H165.974V48.32H72.0149L72.0139 0.0299988Z" fill="black"/>
</g>
</mask>
<g mask="url(#mask0_3_131)">
<path id="Vector_2" fill-rule="evenodd" clip-rule="evenodd" d="M159.56 24.152C159.576 22.0868 158.803 20.0932 157.399 18.579C156.738 17.8708 155.943 17.302 155.059 16.906C154.163 16.5041 153.191 16.2991 152.209 16.305C151.199 16.305 150.248 16.505 149.357 16.906C148.473 17.3019 147.677 17.8708 147.017 18.579C145.613 20.0937 144.84 22.0876 144.857 24.153C144.84 26.2181 145.613 28.2115 147.017 29.726C147.678 30.4339 148.473 31.0023 149.357 31.398C150.253 31.8004 151.225 32.0057 152.208 32C153.218 32 154.168 31.8 155.06 31.398C155.943 31.0022 156.739 30.4337 157.399 29.726C158.803 28.2114 159.576 26.2174 159.559 24.152H159.56ZM165.975 24.152C165.975 26.084 165.618 27.875 164.905 29.525C164.22 31.1336 163.221 32.5888 161.965 33.805C160.718 35.01 159.255 35.961 157.577 36.659C155.899 37.358 154.109 37.707 152.208 37.707C150.308 37.707 148.525 37.358 146.862 36.659C145.237 35.9859 143.756 35.0099 142.496 33.783C141.243 32.556 140.244 31.0942 139.556 29.481C138.843 27.831 138.486 26.055 138.486 24.152C138.486 22.279 138.85 20.518 139.578 18.868C140.282 17.2518 141.288 15.7841 142.54 14.543C143.795 13.3044 145.278 12.3203 146.907 11.645C148.586 10.9433 150.388 10.5869 152.208 10.597C154.109 10.597 155.898 10.947 157.577 11.645C159.255 12.343 160.717 13.295 161.965 14.499C163.213 15.703 164.193 17.137 164.905 18.801C165.618 20.466 165.975 22.25 165.975 24.152V24.152ZM136.258 36.905C135.708 37.1581 135.133 37.3525 134.543 37.485C133.905 37.633 133.243 37.707 132.561 37.707C131.634 37.7103 130.712 37.5827 129.821 37.328C128.975 37.092 128.192 36.6735 127.526 36.102C126.873 35.537 126.353 34.802 125.966 33.895C125.581 32.988 125.388 31.895 125.388 30.618V0.0289917H131.937V29.503C131.937 30.573 132.152 31.309 132.583 31.71C133.013 32.111 133.526 32.312 134.12 32.312C134.862 32.312 135.575 32.089 136.258 31.643V36.905V36.905ZM122.492 11.22L110.908 41.854C110.047 44.143 108.918 45.793 107.522 46.804C106.126 47.814 104.462 48.319 102.532 48.319C102.235 48.319 101.909 48.297 101.552 48.253C101.206 48.2104 100.863 48.1432 100.527 48.052L98.3889 42.077C98.8895 42.3131 99.412 42.4996 99.9489 42.634C100.483 42.768 100.988 42.835 101.463 42.835C102.473 42.835 103.393 42.605 104.225 42.144C105.057 41.684 105.695 40.829 106.141 39.58L107.032 36.994L97.0969 11.221H104.092L110.017 27.809L115.587 11.221H122.492V11.22ZM95.5379 7.34199H78.7859V15.636H95.3149V21.254H78.7849V37.038H72.0149V1.41199H95.5389V7.34199H95.5379Z" fill="white"/>
</g>
</g>
</g>
</g>
</svg>
